<?xml version="1.0" standalone="no"?>
<!DOCTYPE svg PUBLIC "-//W3C//DTD SVG 20010904//EN"
 "http://www.w3.org/TR/2001/REC-SVG-20010904/DTD/svg10.dtd">
<svg version="1.0" xmlns="http://www.w3.org/2000/svg"
 width="712.000000pt" height="712.000000pt" viewBox="0 0 712.000000 712.000000"
 preserveAspectRatio="xMidYMid meet">
<metadata>
Created by potrace 1.11, written by Peter Selinger 2001-2013
</metadata>
<g transform="translate(0.000000,712.000000) scale(0.100000,-0.100000)"
fill="#000000" stroke="none">
<path d="M4507 7114 c-1 -1 -81 -5 -177 -9 -96 -4 -211 -9 -255 -11 -44 -2
-154 -6 -245 -9 -91 -4 -208 -8 -260 -10 -205 -7 -562 -17 -705 -19 -83 -1
-156 -5 -162 -9 -6 -4 -24 -9 -40 -11 -15 -2 -44 -9 -63 -16 -19 -6 -44 -13
-55 -15 -16 -4 -194 -60 -253 -80 -7 -2 -16 -5 -20 -7 -4 -1 -18 -7 -31 -14
-14 -7 -28 -11 -33 -8 -4 3 -8 0 -8 -5 0 -6 -3 -10 -7 -9 -11 3 -148 -51 -253
-100 -19 -9 -37 -17 -40 -17 -10 0 -266 -129 -280 -141 -8 -7 -22 -14 -30 -16
-8 -2 -19 -6 -25 -11 -5 -4 -70 -44 -143 -90 -133 -82 -354 -240 -360 -258 -2
-5 -8 -9 -12 -9 -5 0 -30 -19 -57 -42 -64 -57 -273 -265 -273 -272 0 -3 -14
-20 -30 -38 -51 -55 -64 -72 -84 -103 -11 -16 -24 -35 -30 -42 -25 -28 -33
-41 -107 -163 -28 -46 -55 -93 -60 -105 -5 -11 -13 -27 -18 -35 -47 -78 -122
-278 -160 -425 -52 -207 -66 -328 -66 -565 0 -184 10 -319 29 -425 21 -114 19
-108 111 -249 52 -80 154 -220 200 -274 74 -87 218 -221 280 -260 16 -10 105
-55 112 -57 1 0 5 -23 8 -50 4 -28 8 -57 10 -65 3 -8 7 -42 11 -74 3 -33 7
-67 9 -76 2 -8 6 -43 10 -75 4 -33 9 -71 11 -85 2 -14 7 -43 10 -65 3 -22 7
-56 10 -75 6 -37 7 -49 19 -145 4 -33 9 -69 11 -80 4 -32 24 -167 30 -205 4
-19 7 -48 9 -65 2 -16 6 -43 9 -60 3 -16 8 -50 12 -75 3 -25 8 -56 10 -70 6
-31 12 -65 24 -150 14 -93 22 -142 33 -195 3 -11 8 -42 11 -68 4 -27 10 -59
13 -70 2 -12 6 -31 8 -43 1 -11 8 -45 14 -75 6 -30 13 -67 16 -84 3 -16 16
-79 31 -140 34 -146 32 -140 34 -140 1 0 3 -11 6 -25 2 -14 9 -38 15 -55 30
-79 44 -104 63 -114 12 -6 46 -25 76 -42 86 -50 440 -230 440 -223 0 3 13 -4
29 -15 16 -12 35 -21 43 -21 7 0 22 -6 33 -13 11 -8 81 -38 155 -68 74 -30
137 -56 140 -59 3 -3 10 -6 15 -7 6 -1 55 -18 110 -38 91 -33 224 -76 364
-119 72 -22 327 -83 375 -91 21 -3 41 -7 45 -9 3 -2 31 -7 61 -11 30 -4 64 -8
75 -10 11 -2 45 -6 75 -10 30 -4 66 -9 80 -11 14 -2 84 -6 157 -9 116 -5 141
-3 205 15 40 12 96 27 123 35 48 13 404 114 495 141 141 40 524 162 570 181 8
3 23 8 32 9 22 5 360 131 416 155 125 55 163 74 262 124 52 27 123 76 141 99
13 15 42 119 75 267 8 35 12 54 37 159 14 58 28 116 31 130 4 20 39 171 60
260 6 23 107 483 112 503 2 10 5 26 8 35 3 9 7 28 10 42 3 14 10 48 16 75 6
28 13 63 15 80 3 16 8 39 12 50 3 11 8 29 10 40 7 44 13 72 22 110 5 22 12 54
15 70 22 118 25 125 57 125 77 0 217 97 334 231 44 50 98 129 88 129 -4 0 -3
4 3 8 17 10 78 136 104 212 12 36 25 72 28 80 3 8 4 19 3 23 0 4 5 20 14 36 8
16 12 31 9 33 -2 3 2 34 10 69 8 35 17 87 21 114 9 62 10 505 2 560 -4 22 -9
65 -12 95 -5 53 -9 80 -20 145 -3 17 -8 46 -10 65 -3 19 -10 56 -16 81 -6 26
-12 53 -13 60 -2 8 -6 25 -9 39 -4 14 -9 36 -11 50 -3 14 -9 39 -15 57 -5 17
-7 34 -4 37 3 3 1 11 -4 18 -5 7 -16 40 -23 73 -7 33 -16 65 -19 70 -3 6 -7
15 -8 20 -1 6 -7 30 -13 55 -6 25 -13 52 -17 60 -3 8 -7 20 -9 25 -1 6 -9 29
-18 53 -8 23 -15 43 -15 45 0 1 -3 11 -6 22 -4 11 -11 31 -15 45 -4 14 -12 34
-16 45 -4 11 -8 23 -9 28 -2 4 -3 8 -5 10 -1 1 -3 9 -5 17 -2 8 -24 71 -50
140 -45 119 -115 241 -206 358 -16 20 -40 50 -52 66 -129 168 -387 440 -537
566 -36 30 -67 57 -70 60 -16 17 -98 79 -117 88 -12 7 -27 18 -35 25 -52 51
-350 220 -478 271 -25 9 -54 21 -65 26 -17 7 -55 19 -190 60 -75 22 -158 34
-253 35 -56 1 -103 0 -105 -1z"/>
</g>
</svg>
