<svg xmlns="http://www.w3.org/2000/svg" viewBox="0 0 671 671"><defs><style>.cls-1,.cls-2,.cls-3{fill:none;stroke-miterlimit:10;stroke-width:4px;}.cls-1{stroke:#364352;}.cls-2{stroke:#2b3a49;}.cls-3{stroke:#13253b;}</style></defs><title>Asset 16</title><g id="Layer_2" data-name="Layer 2"><g id="Layer_1-2" data-name="Layer 1"><path class="cls-1" d="M194.15,387.38a150.75,150.75,0,0,1,25.23-147.67"/><path class="cls-1" d="M292.6,479.82a150.9,150.9,0,0,1-90.43-74.38"/><path class="cls-1" d="M427.87,454.36A149.84,149.84,0,0,1,335.5,486c-3.62,0-7.22-.13-10.78-.38"/><path class="cls-1" d="M442.64,229.76A150.54,150.54,0,0,1,455,427"/><path class="cls-1" d="M260.5,205a150.65,150.65,0,0,1,156.15,3.74"/><path class="cls-2" d="M157.38,479.83A228.28,228.28,0,0,1,106.25,335.5q0-7.39.46-14.69"/><path class="cls-2" d="M382.46,559.93a229.92,229.92,0,0,1-168.08-29.75"/><path class="cls-2" d="M553.88,405.44A229.89,229.89,0,0,1,439,540.13"/><path class="cls-2" d="M416.66,121A229.87,229.87,0,0,1,553.88,265.56"/><path class="cls-2" d="M144.48,208.7A229.11,229.11,0,0,1,318.93,106.84"/><path class="cls-3" d="M2,335.5A332.69,332.69,0,0,1,113.77,86.38"/><path class="cls-3" d="M106.25,577.71A332.5,332.5,0,0,1,2.87,359.78"/><path class="cls-3" d="M410.5,660.53a334.25,334.25,0,0,1-278.69-60.94"/><path class="cls-3" d="M644.93,460.13a334.6,334.6,0,0,1-187.1,185.72"/><path class="cls-3" d="M633.18,185A334.84,334.84,0,0,1,657.46,422.8"/><path class="cls-3" d="M479.76,34.73a334.89,334.89,0,0,1,138,123"/><path class="cls-3" d="M157.38,53.5A334.18,334.18,0,0,1,457.83,25.15"/></g></g></svg>