<svg xmlns="http://www.w3.org/2000/svg" viewBox="0 0 124.71 128.5"><defs><style>.cls-1,.cls-3{fill:none;}.cls-1{stroke:#657585;stroke-miterlimit:10;}.cls-2{fill:#fff;}</style></defs><title>Asset 31</title><g id="Layer_2" data-name="Layer 2"><g id="Layer_1-2" data-name="Layer 1"><circle class="cls-1" cx="63.11" cy="63.82" r="52.44"/><circle class="cls-1" cx="63.11" cy="63.82" r="59.2"/><circle class="cls-2" cx="17.07" cy="32.71" r="1.42"/><circle class="cls-2" cx="13.16" cy="23.11" r="1.07"/><rect class="cls-3" x="13.7" y="22.59" width="1" height="1"/><circle class="cls-2" cx="14.2" cy="23.09" r="0.5"/><rect class="cls-3" x="12.99" y="21.88" width="1" height="1"/><circle class="cls-2" cx="13.49" cy="22.38" r="0.5"/><rect class="cls-3" x="12.28" y="21.92" width="1" height="1"/><circle class="cls-2" cx="12.78" cy="22.42" r="0.5"/><rect class="cls-3" x="11.6" y="22.62" width="1" height="1"/><circle class="cls-2" cx="12.1" cy="23.12" r="0.5"/><rect class="cls-3" x="12.31" y="23.33" width="1" height="1"/><circle class="cls-2" cx="12.81" cy="23.83" r="0.5"/><rect class="cls-3" x="13.02" y="23.32" width="1" height="1"/><circle class="cls-2" cx="13.52" cy="23.82" r="0.5"/><rect class="cls-3" x="13.72" y="22.61" width="1" height="1"/><circle class="cls-2" cx="14.22" cy="23.11" r="0.5"/><circle class="cls-2" cx="22.4" cy="23.11" r="0.36"/><circle class="cls-2" cx="21.69" cy="25.96" r="0.36"/><circle class="cls-2" cx="9.6" cy="36.62" r="0.36"/><circle class="cls-2" cx="3.91" cy="49.42" r="0.36"/><circle class="cls-2" cx="8.18" cy="83.56" r="1.07"/><circle class="cls-2" cx="10.31" cy="60.09" r="0.36"/><circle class="cls-2" cx="0.36" cy="60.8" r="0.36"/><circle class="cls-2" cx="0.36" cy="75.02" r="0.36"/><circle class="cls-2" cx="8.18" cy="69.33" r="0.36"/><circle class="cls-2" cx="4.98" cy="54.76" r="1.42"/><circle class="cls-2" cx="52.27" cy="5.33" r="1.07"/><circle class="cls-2" cx="76.44" cy="1.07" r="1.07"/><circle class="cls-2" cx="99.91" cy="22.4" r="1.07"/><circle class="cls-2" cx="117.69" cy="40.89" r="1.07"/><circle class="cls-2" cx="116.27" cy="65.78" r="1.07"/><circle class="cls-2" cx="106.31" cy="101.33" r="1.07"/><circle class="cls-2" cx="118.4" cy="81.42" r="1.07"/><circle class="cls-2" cx="73.6" cy="119.11" r="1.07"/><circle class="cls-2" cx="55.11" cy="125.51" r="1.07"/><circle class="cls-2" cx="21.69" cy="102.04" r="1.07"/><circle class="cls-2" cx="15.29" cy="97.07" r="0.36"/><circle class="cls-2" cx="6.04" cy="91.38" r="0.36"/><circle class="cls-2" cx="16" cy="103.47" r="0.36"/><circle class="cls-2" cx="22.4" cy="108.44" r="0.36"/><circle class="cls-2" cx="32.36" cy="107.73" r="0.36"/><circle class="cls-2" cx="37.33" cy="113.42" r="0.36"/><circle class="cls-2" cx="39.47" cy="119.82" r="0.36"/><circle class="cls-2" cx="50.13" cy="117.69" r="0.36"/><circle class="cls-2" cx="65.07" cy="118.4" r="0.36"/><circle class="cls-2" cx="8.18" cy="69.33" r="0.36"/><rect class="cls-3" x="76.48" y="115.23" width="1" height="1"/><circle class="cls-2" cx="76.98" cy="115.73" r="0.5"/><rect class="cls-3" x="88.03" y="116.03" width="1" height="1"/><circle class="cls-2" cx="88.53" cy="116.53" r="0.5"/><rect class="cls-3" x="92.48" y="109.37" width="1" height="1"/><circle class="cls-2" cx="92.98" cy="109.87" r="0.5"/><rect class="cls-3" x="98.7" y="102.26" width="1" height="1"/><circle class="cls-2" cx="99.2" cy="102.76" r="0.5"/><rect class="cls-3" x="103.59" y="108.92" width="1" height="1"/><circle class="cls-2" cx="104.09" cy="109.42" r="0.5"/><rect class="cls-3" x="107.14" y="93.1" width="1" height="1"/><circle class="cls-2" cx="107.64" cy="93.6" r="0.5"/><rect class="cls-3" x="29.6" y="10.4" width="1" height="1"/><circle class="cls-2" cx="30.1" cy="10.9" r="0.5"/><rect class="cls-3" x="31.97" y="16.8" width="1" height="1"/><circle class="cls-2" cx="32.47" cy="17.3" r="0.5"/><rect class="cls-3" x="59" y="3.77" width="1" height="1"/><circle class="cls-2" cx="59.5" cy="4.27" r="0.5"/><rect class="cls-3" x="61.6" y="11.83" width="1" height="1"/><circle class="cls-2" cx="62.1" cy="12.33" r="0.5"/><rect class="cls-3" x="70.37" y="7.8" width="1" height="1"/><circle class="cls-2" cx="70.87" cy="8.3" r="0.5"/><rect class="cls-3" x="92.66" y="7.32" width="1" height="1"/><circle class="cls-2" cx="93.16" cy="7.82" r="0.5"/><rect class="cls-3" x="89.81" y="18.23" width="1" height="1"/><circle class="cls-2" cx="90.31" cy="18.73" r="0.5"/><rect class="cls-3" x="95.74" y="17.51" width="1" height="1"/><circle class="cls-2" cx="96.24" cy="18.01" r="0.5"/><rect class="cls-3" x="106.64" y="29.13" width="1" height="1"/><circle class="cls-2" cx="107.14" cy="29.63" r="0.5"/><rect class="cls-3" x="106.64" y="39.32" width="1" height="1"/><circle class="cls-2" cx="107.14" cy="39.82" r="0.5"/><rect class="cls-3" x="113.51" y="46.2" width="1" height="1"/><circle class="cls-2" cx="114.01" cy="46.7" r="0.5"/><rect class="cls-3" x="121.57" y="62.55" width="1" height="1"/><circle class="cls-2" cx="122.07" cy="63.05" r="0.5"/><rect class="cls-3" x="117.54" y="57.1" width="1" height="1"/><circle class="cls-2" cx="118.04" cy="57.6" r="0.5"/><rect class="cls-3" x="119.44" y="49.04" width="1" height="1"/><circle class="cls-2" cx="119.94" cy="49.54" r="0.5"/><rect class="cls-3" x="121.81" y="40.74" width="1" height="1"/><circle class="cls-2" cx="122.31" cy="41.24" r="0.5"/><rect class="cls-3" x="114.94" y="27.94" width="1" height="1"/><circle class="cls-2" cx="115.44" cy="28.44" r="0.5"/><rect class="cls-3" x="108.77" y="22.73" width="1" height="1"/><circle class="cls-2" cx="109.27" cy="23.23" r="0.5"/><rect class="cls-3" x="113.28" y="81.51" width="1" height="1"/><circle class="cls-2" cx="113.78" cy="82.01" r="0.5"/><rect class="cls-3" x="123.71" y="75.83" width="1" height="1"/><circle class="cls-2" cx="124.21" cy="76.33" r="0.5"/><rect class="cls-3" x="118.49" y="75.35" width="1" height="1"/><circle class="cls-2" cx="118.99" cy="75.85" r="0.5"/><rect class="cls-3" x="113.04" y="90.52" width="1" height="1"/><circle class="cls-2" cx="113.54" cy="91.02" r="0.5"/><rect class="cls-3" x="109.72" y="99.06" width="1" height="1"/><circle class="cls-2" cx="110.22" cy="99.56" r="0.5"/><rect class="cls-3" x="106.4" y="95.26" width="1" height="1"/><circle class="cls-2" cx="106.9" cy="95.76" r="0.5"/><rect class="cls-3" x="81.99" y="113.99" width="1" height="1"/><circle class="cls-2" cx="82.49" cy="114.49" r="0.5"/><rect class="cls-3" x="70.85" y="127.5" width="1" height="1"/><circle class="cls-2" cx="71.35" cy="128" r="0.5"/><rect class="cls-3" x="72.03" y="123.47" width="1" height="1"/><circle class="cls-2" cx="72.53" cy="123.97" r="0.5"/><rect class="cls-3" x="7.06" y="71.54" width="1" height="1"/><circle class="cls-2" cx="7.56" cy="72.04" r="0.5"/><rect class="cls-3" x="25.1" y="13.72" width="1" height="1"/><circle class="cls-2" cx="25.6" cy="14.22" r="0.5"/><rect class="cls-3" x="24.39" y="19.41" width="1" height="1"/><circle class="cls-2" cx="24.89" cy="19.91" r="0.5"/><rect class="cls-3" x="37.9" y="8.03" width="1" height="1"/><circle class="cls-2" cx="38.4" cy="8.53" r="0.5"/><rect class="cls-3" x="45.01" y="11.35" width="1" height="1"/><circle class="cls-2" cx="45.51" cy="11.85" r="0.5"/><rect class="cls-3" x="46.2" y="3.06" width="1" height="1"/><circle class="cls-2" cx="46.7" cy="3.56" r="0.5"/><rect class="cls-3" x="73.93" y="7.8" width="1" height="1"/><circle class="cls-2" cx="74.43" cy="8.3" r="0.5"/><rect class="cls-3" x="81.04" y="4.95" width="1" height="1"/><circle class="cls-2" cx="81.54" cy="5.45" r="0.5"/><rect class="cls-3" x="82.46" y="11.83" width="1" height="1"/><circle class="cls-2" cx="82.96" cy="12.33" r="0.5"/><rect class="cls-3" x="11.59" y="41.69" width="1" height="1"/><circle class="cls-2" cx="12.09" cy="42.19" r="0.5"/></g></g></svg>