<svg xmlns="http://www.w3.org/2000/svg" xmlns:xlink="http://www.w3.org/1999/xlink" viewBox="0 0 495 345"><defs><style>.cls-1{fill:url(#linear-gradient);}.cls-2{fill:url(#linear-gradient-2);}.cls-3{fill:url(#linear-gradient-3);}.cls-4{fill:url(#linear-gradient-4);}.cls-5{fill:url(#linear-gradient-5);}.cls-6{fill:url(#linear-gradient-6);}.cls-7{fill:url(#linear-gradient-7);}.cls-8{fill:url(#linear-gradient-8);}.cls-9{fill:#fff;}.cls-10{fill:url(#linear-gradient-9);}.cls-11{fill:url(#linear-gradient-10);}.cls-12{fill:url(#linear-gradient-11);}.cls-13{fill:url(#linear-gradient-12);}</style><linearGradient id="linear-gradient" x1="104.5" y1="136.5" x2="105.5" y2="136.5" gradientTransform="translate(135.68 -32.96) rotate(47.83)" gradientUnits="userSpaceOnUse"><stop offset="0" stop-color="#00127f"/><stop offset="0.02" stop-color="#001282"/><stop offset="0.35" stop-color="#0914b7"/><stop offset="0.63" stop-color="#1016de"/><stop offset="0.86" stop-color="#1417f6"/><stop offset="1" stop-color="#1517ff"/></linearGradient><linearGradient id="linear-gradient-2" x1="113.5" y1="121.5" x2="114.5" y2="121.5" gradientTransform="translate(127.52 -44.56) rotate(47.83)" gradientUnits="userSpaceOnUse"><stop offset="0" stop-color="#ff151b"/><stop offset="0.02" stop-color="#fc151a"/><stop offset="0.35" stop-color="#c70c10"/><stop offset="0.63" stop-color="#a00509"/><stop offset="0.86" stop-color="#880105"/><stop offset="1" stop-color="#7f0003"/></linearGradient><linearGradient id="linear-gradient-3" x1="240.5" y1="84.5" x2="241.5" y2="84.5" gradientTransform="translate(141.84 -150.85) rotate(47.83)" xlink:href="#linear-gradient"/><linearGradient id="linear-gradient-4" x1="249.5" y1="69.5" x2="250.5" y2="69.5" gradientTransform="translate(133.68 -162.45) rotate(47.83)" xlink:href="#linear-gradient-2"/><linearGradient id="linear-gradient-5" x1="380.5" y1="0.5" x2="381.5" y2="0.5" gradientTransform="translate(125.6 -282.22) rotate(47.83)" xlink:href="#linear-gradient"/><linearGradient id="linear-gradient-6" x1="145" y1="192.5" x2="146" y2="192.5" gradientUnits="userSpaceOnUse"><stop offset="0" stop-color="#ff151b"/><stop offset="0.07" stop-color="#ea1327"/><stop offset="0.32" stop-color="#a60c4d"/><stop offset="0.55" stop-color="#70076c"/><stop offset="0.75" stop-color="#490382"/><stop offset="0.9" stop-color="#31018f"/><stop offset="1" stop-color="#280094"/></linearGradient><linearGradient id="linear-gradient-7" x1="146" y1="159.5" x2="147" y2="159.5" xlink:href="#linear-gradient-6"/><linearGradient id="linear-gradient-8" x1="173" y1="97.5" x2="174" y2="97.5" xlink:href="#linear-gradient-6"/><linearGradient id="linear-gradient-9" x1="309" y1="186.5" x2="310" y2="186.5" gradientUnits="userSpaceOnUse"><stop offset="0" stop-color="#d4ff2a"/><stop offset="0.57" stop-color="#e7ff1c"/><stop offset="1" stop-color="#f0ff15"/></linearGradient><linearGradient id="linear-gradient-10" x1="494" y1="122.5" x2="495" y2="122.5" xlink:href="#linear-gradient-9"/><linearGradient id="linear-gradient-11" x1="383" y1="64.5" x2="384" y2="64.5" xlink:href="#linear-gradient-9"/><linearGradient id="linear-gradient-12" x1="261" y1="67.5" x2="262" y2="67.5" xlink:href="#linear-gradient-9"/></defs><title>Asset 14</title><g id="Layer_2" data-name="Layer 2"><g id="Layer_1-2" data-name="Layer 1"><rect class="cls-1" x="104.65" y="136.15" width="0.71" height="0.71" transform="translate(-66.66 122.69) rotate(-47.83)"/><rect class="cls-2" x="113.65" y="121.15" width="0.71" height="0.71" transform="translate(-52.58 124.43) rotate(-47.83)"/><rect class="cls-3" x="240.65" y="84.15" width="0.71" height="0.71" transform="translate(16.58 206.39) rotate(-47.83)"/><rect class="cls-4" x="249.65" y="69.15" width="0.71" height="0.71" transform="translate(30.66 208.13) rotate(-47.83)"/><rect class="cls-5" x="380.65" y="0.15" width="0.71" height="0.71" transform="translate(124.86 282.55) rotate(-47.83)"/><circle class="cls-6" cx="145.5" cy="192.5" r="0.5"/><circle class="cls-7" cx="146.5" cy="159.5" r="0.5"/><circle class="cls-8" cx="173.5" cy="97.5" r="0.5"/><rect class="cls-9" x="196.15" y="246.15" width="0.71" height="0.71" transform="translate(-118.11 226.66) rotate(-47.83)"/><rect class="cls-9" x="219.15" y="165.15" width="0.71" height="0.71" transform="translate(-50.52 217.08) rotate(-47.83)"/><rect class="cls-9" x="321.15" y="133.15" width="0.71" height="0.71" transform="translate(6.72 282.16) rotate(-47.83)"/><rect class="cls-9" x="349.15" y="216.15" width="0.71" height="0.71" transform="translate(-45.59 330.2) rotate(-47.83)"/><rect class="cls-9" x="276.15" y="124.15" width="0.71" height="0.71" transform="translate(-1.4 245.85) rotate(-47.83)"/><circle class="cls-10" cx="309.5" cy="186.5" r="0.5"/><circle class="cls-11" cx="494.5" cy="122.5" r="0.5"/><circle class="cls-12" cx="383.5" cy="64.5" r="0.5"/><circle class="cls-13" cx="261.5" cy="67.5" r="0.5"/><rect class="cls-9" x="473.15" y="182.15" width="0.71" height="0.71" transform="translate(20.37 410.92) rotate(-47.83)"/><rect class="cls-9" x="262.15" y="344.15" width="0.71" height="0.71" transform="translate(-169.05 307.78) rotate(-47.83)"/><rect class="cls-9" x="105.15" y="174.15" width="0.71" height="0.71" transform="translate(-94.66 135.55) rotate(-47.83)"/><rect class="cls-9" x="226.15" y="39.15" width="0.71" height="0.71" transform="translate(45.17 180.86) rotate(-47.83)"/><rect class="cls-9" x="0.15" y="164.15" width="0.71" height="0.71" transform="translate(-121.76 54.44) rotate(-47.83)"/><rect class="cls-9" x="152.15" y="8.15" width="0.71" height="0.71" transform="translate(43.82 115.82) rotate(-47.83)"/></g></g></svg>