<svg xmlns="http://www.w3.org/2000/svg" xmlns:xlink="http://www.w3.org/1999/xlink" viewBox="0 0 228.91 236.14"><defs><style>.cls-1{fill:#eb0005;}.cls-2{fill:#c20004;}.cls-3,.cls-5{fill:#fff;}.cls-4{fill:url(#linear-gradient);}.cls-5{font-size:40px;font-family:Poppins-Medium, Poppins;}</style><linearGradient id="linear-gradient" x1="734.02" y1="36.87" x2="735.02" y2="36.87" gradientTransform="matrix(63.07, 62.05, 62.05, -63.07, -48445.21, -43164.59)" gradientUnits="userSpaceOnUse"><stop offset="0" stop-color="#212121" stop-opacity="0.62"/><stop offset="1" stop-color="#4d4d4d" stop-opacity="0"/></linearGradient></defs><title>Asset 33</title><g id="Layer_2" data-name="Layer 2"><g id="Layer_1-2" data-name="Layer 1"><path class="cls-1" d="M0,158.5V17.14A17.14,17.14,0,0,1,17.14,0h94.31L182.1,70.66V172.83H0V158.5Z"/><path class="cls-2" d="M182.1,172.83v47.8c0,7.69-7.67,13.91-17.14,13.91H17.14C7.67,234.54,0,228.32,0,220.63v-47.8Z"/><path class="cls-3" d="M126.39,157.77h-71a4.08,4.08,0,0,1-1-.25A3.81,3.81,0,0,1,52,155a3.32,3.32,0,0,1-.13-.7c0-.11,0-.23,0-.35V64.6c0-.11,0-.23,0-.35a3.68,3.68,0,0,1,.24-1,3.91,3.91,0,0,1,1-1.45,3.83,3.83,0,0,1,1.54-.85,3.23,3.23,0,0,1,.69-.13l.36,0h70.69l.36,0,.35.05a3.28,3.28,0,0,1,.68.19,3.67,3.67,0,0,1,1.19.74,3.93,3.93,0,0,1,1,1.45,4.06,4.06,0,0,1,.24,1c0,.12,0,.24,0,.35v89.34c0,.12,0,.24,0,.35a4,4,0,0,1-.24,1,3.9,3.9,0,0,1-2.53,2.31,5.58,5.58,0,0,1-.69.13Zm-3.83-89.33h-63v81.67h63Zm-7,66.13v5.35H64.61v-5.35Zm-50.92-11.2h50.92v5.35H64.61Zm0-11.2h50.92v5.36H64.61Zm0-11.19h50.92v5.35H64.61ZM91,78.6h24.49V95.13H91ZM64.61,89.8H84.87v5.33H64.61Zm0-11.2H84.87V84H64.61Z"/><path class="cls-4" d="M111.41,0h0l70.67,70.67v59.08a1,1,0,0,1-1.26-.1c-3.35-3.34-66.26-61.92-66.26-66.65,0-20.81-3.14-62.5-3.18-63Z"/><path class="cls-2" d="M111.41,0h0l70.67,70.67H129.25a17.86,17.86,0,0,1-17.84-17.84V0Z"/><path class="cls-3" d="M148.7,186.92h23V135.84h34.25v51.08h23l-40.1,45.34Z"/><text class="cls-5" transform="translate(18.7 212.86)">Report</text></g></g></svg>