<svg xmlns="http://www.w3.org/2000/svg" viewBox="0 0 70.8 70.8"><defs><style>.cls-1{fill:#fff;stroke:#fff;stroke-miterlimit:10;stroke-width:0.8px;}</style></defs><title>Asset 9</title><g id="Layer_2" data-name="Layer 2"><g id="Layer_1-2" data-name="Layer 1"><path class="cls-1" d="M28.64,52.13a26.76,26.76,0,0,1-5.37-1.46C16.84,48,14.1,41.3,14.77,35.35a15.26,15.26,0,0,1,3.15-7.89,1,1,0,0,0,.1-1.09,10.47,10.47,0,0,1,.2-7.11,1.1,1.1,0,0,1,1.25-.86,16.12,16.12,0,0,1,8.1,2.72,1.39,1.39,0,0,0,1.32.19,23.7,23.7,0,0,1,13.43,0A1.34,1.34,0,0,0,43.69,21a14.18,14.18,0,0,1,7.37-3,1.15,1.15,0,0,1,1.36.83,10.2,10.2,0,0,1,.41,7.33,1.34,1.34,0,0,0,.22,1.32c3.57,5.46,4.29,11.22,1.34,17.17-2.14,4.32-6,6.27-10.47,7l-.83.14c-1.24.2-1.26.21-.64,1.27a14,14,0,0,1,1.92,6.37c.12,1.88.12,3.75.06,5.62,0,.52-.1,1.05-.78,1s-.59-.57-.58-1a38,38,0,0,0-.23-6.91,11.11,11.11,0,0,0-1.37-4,14.29,14.29,0,0,1-.85-1.59c-.44-1-.1-1.68,1-1.9s2.39-.4,3.57-.66c7.58-1.67,10.15-8.46,9.56-14.12a15.6,15.6,0,0,0-3.22-8.14,1.2,1.2,0,0,1-.19-1.33,8.94,8.94,0,0,0,.17-6.18c-.21-.66-.5-.83-1.15-.71a13.11,13.11,0,0,0-6.29,3,1.39,1.39,0,0,1-1.53.31,22.5,22.5,0,0,0-13.82,0,1.41,1.41,0,0,1-1.41-.21,15.34,15.34,0,0,0-7-2.75c-.61-.09-.88.08-1.05.72a8.45,8.45,0,0,0,.18,5.51A1.93,1.93,0,0,1,19,28.31,14.33,14.33,0,0,0,19.18,46a13.73,13.73,0,0,0,8.13,4.42c.61.13,1.22.22,1.82.36,1,.24,1.4,1,.77,1.85A6.41,6.41,0,0,0,28.58,56c0,.41-.37.56-.66.73a5.51,5.51,0,0,1-7-.87c-.41-.4-.77-.85-1.14-1.28a11.87,11.87,0,0,0-5-3.56,2.73,2.73,0,0,0-1.66-.06c2.31.57,3.24,2.29,4.21,4a22.72,22.72,0,0,0,2.28,3.32,6.86,6.86,0,0,0,6.34,2.53c2.46-.22,2.27-.34,2.28,2.09a35.3,35.3,0,0,1-.13,4.93c-.24,1.68-.84,2.16-2.41,1.65C13,65.29,4.38,57.22,1.29,43.6-3.37,23.07,10.87,4.44,29.23,1,47.05-2.38,65,9.25,69.25,27.14c2.53,10.72,1,20.82-5.77,29.7-5.09,6.68-11.95,10.56-19.92,12.5a40.61,40.61,0,0,1-7,1c-.5,0-1.06.07-1.1-.61S36,69,36.51,69c8.21-.6,15.68-3.19,22-8.78A30.55,30.55,0,0,0,68.88,38.46c.53-8.9-1.65-17-7.28-23.92A32.92,32.92,0,0,0,38.05,2C21.25.56,5.69,12.51,2.37,29.32,0,41.22,4,58.93,21.59,66.36c1.41.59,2.8,1.22,4.25,1.69.57.18.85.14.93-.58.16-1.65.06-3.29.09-4.93,0-.44-.2-.45-.52-.41-3.94.48-6.83-1.23-8.95-4.51-.71-1.11-1.4-2.23-2.05-3.37a4.07,4.07,0,0,0-2.22-1.89,8.26,8.26,0,0,1-1.38-.64A1.35,1.35,0,0,1,11,50.19a1.31,1.31,0,0,1,1.29-.94,6.46,6.46,0,0,1,3,.45A13.22,13.22,0,0,1,21,53.87a5.74,5.74,0,0,0,3,2.18,4.4,4.4,0,0,0,3-.41.69.69,0,0,0,.42-.59A5.35,5.35,0,0,1,28.64,52.13Z"/></g></g></svg>