<svg xmlns="http://www.w3.org/2000/svg" viewBox="0 0 72 72"><defs><style>.cls-1{fill:#fff;}.cls-1,.cls-2{stroke:#fff;stroke-miterlimit:10;}.cls-2{fill:none;stroke-width:2px;}</style></defs><title>Asset 10</title><g id="Layer_2" data-name="Layer 2"><g id="Layer_1-2" data-name="Layer 1"><path class="cls-1" d="M17,8.27a7.72,7.72,0,0,1,1.06-.65,5.15,5.15,0,0,1,2.22-.4l.21,0,.91.21,1,.5.56.42a4.38,4.38,0,0,0,.58.56A4.27,4.27,0,0,0,24,9.6a6.33,6.33,0,0,1,.81,2.45v1.2A6.36,6.36,0,0,1,24,15.63l-.39.55-.66.68-.45.34a9.47,9.47,0,0,1-1.11.54L20.29,18l-1.12,0a9.48,9.48,0,0,1-1.11-.35A10.26,10.26,0,0,1,17,16.89a5.79,5.79,0,0,1-1.64-2.41c-.11-.4-.2-.81-.27-1.22s0-.81,0-1.21l.25-1.23a10.18,10.18,0,0,1,.55-1.21l0-.06a8.86,8.86,0,0,1,.91-1.1A.46.46,0,0,0,17,8.27Zm5.54,7.47a3.41,3.41,0,0,0,.86-1.25,4.4,4.4,0,0,0,.05-3.67,3.82,3.82,0,0,0-2.05-2.14,2.5,2.5,0,0,0-1.12-.3,2.24,2.24,0,0,0-1.12.07,2.45,2.45,0,0,0-1.12.46,2.62,2.62,0,0,0-.83.69,1,1,0,0,0-.29.35,2.68,2.68,0,0,0-.49.87A3.4,3.4,0,0,0,16.11,12a3.63,3.63,0,0,0,0,1.23,3.33,3.33,0,0,0,.36,1.21,2.16,2.16,0,0,0,.44.75,1.43,1.43,0,0,0,.4.48,2.29,2.29,0,0,0,.71.57,2.66,2.66,0,0,0,1.13.46,2.24,2.24,0,0,0,1.12.07,2.46,2.46,0,0,0,1.12-.29A3.06,3.06,0,0,0,22.55,15.74Z"/><path class="cls-1" d="M14.78,59.41l0-1V57.23a8.28,8.28,0,0,0,0-1.22V54.79a8.28,8.28,0,0,0,0-1.22V52.35a8.42,8.42,0,0,0,0-1.23V49.9a8.28,8.28,0,0,0,0-1.22V47.46a8.28,8.28,0,0,0,0-1.22V45a8.28,8.28,0,0,0,0-1.22V42.58a8.42,8.42,0,0,0,0-1.23V40.13a8.28,8.28,0,0,0,0-1.22V37.69a8.28,8.28,0,0,0,0-1.22V35.25a8.28,8.28,0,0,0,0-1.22V32.81a8.42,8.42,0,0,0,0-1.23V30.36a8.28,8.28,0,0,0,0-1.22V27.92a8.28,8.28,0,0,0,0-1.22V25.48a8.42,8.42,0,0,0,0-1.23V23l0-.61,1.06,0h8.94c.39,0,.39,0,.4.48a.76.76,0,0,0,0,.15V58.45a4.85,4.85,0,0,0,0,.66c0,.23-.05.34-.27.3a.3.3,0,0,0-.13,0,7,7,0,0,0-1.12,0,5.24,5.24,0,0,0-1.12,0,6.86,6.86,0,0,0-1.11,0,5.24,5.24,0,0,0-1.12,0,7,7,0,0,0-1.12,0,5.24,5.24,0,0,0-1.12,0,6.86,6.86,0,0,0-1.11,0,5.24,5.24,0,0,0-1.12,0ZM24.13,34V24.26c0-.07,0-.14,0-.21,0-.54,0-.54-.5-.48a5.24,5.24,0,0,0-1.12,0,5.88,5.88,0,0,0-1.11,0,7,7,0,0,0-1.12,0,7,7,0,0,0-1.12,0,6,6,0,0,0-1.12,0,5.88,5.88,0,0,0-1.11,0h-.55c-.64,0-.64,0-.6.7a8.42,8.42,0,0,0,0,1.23V26.7a8.28,8.28,0,0,0,0,1.22v1.22a8.28,8.28,0,0,0,0,1.22v1.22a8.42,8.42,0,0,0,0,1.23V34a8.42,8.42,0,0,0,0,1.23v1.22a8.28,8.28,0,0,0,0,1.22v1.22a8.42,8.42,0,0,0,0,1.23v1.21a8.42,8.42,0,0,0,0,1.23V43.8a8.28,8.28,0,0,0,0,1.22v1.22a8.28,8.28,0,0,0,0,1.22v1.22a8.42,8.42,0,0,0,0,1.23v1.21a8.42,8.42,0,0,0,0,1.23v1.22a8.28,8.28,0,0,0,0,1.22V56a8.28,8.28,0,0,0,0,1.22v1c0,.08,0,.07.09.06h7.95c.24,0,.34,0,.31-.32a5.93,5.93,0,0,1,0-.73V34Z"/><path class="cls-1" d="M59.11,32.81,59.25,34l.06.66,0,.55c0,.41,0,.81,0,1.22v1.22c0,.41,0,.81,0,1.22v1.22c0,.41,0,.82,0,1.22v1.23c0,.4,0,.81,0,1.22V45c0,.41,0,.81,0,1.22v1.22c0,.41,0,.82,0,1.22V49.9q0,.62,0,1.23v1.22c0,.4,0,.81,0,1.22v1.22c0,.41,0,.81,0,1.22v1.22c0,.41,0,.82,0,1.22v.91a10.52,10.52,0,0,1-1.12.07,6.86,6.86,0,0,0-1.11,0,5.24,5.24,0,0,0-1.12,0,7,7,0,0,0-1.12,0,5.24,5.24,0,0,0-1.12,0,6.86,6.86,0,0,0-1.11,0,5.24,5.24,0,0,0-1.12,0,7,7,0,0,0-1.12,0,5.24,5.24,0,0,0-1.12,0c-.3,0-.37-.13-.34-.43a3.39,3.39,0,0,0,0-.55V37.69a9.93,9.93,0,0,0,0-1.22,5,5,0,0,0-.1-1.22,2.24,2.24,0,0,0-.15-.68A2.12,2.12,0,0,0,47.1,33,3,3,0,0,0,46,32.84a3.83,3.83,0,0,0-1.12.09,2.92,2.92,0,0,0-1.12.3,4.93,4.93,0,0,0-3,3.24,2.65,2.65,0,0,0-.1,1.22V58.45a5.3,5.3,0,0,0,0,.69c0,.2-.05.29-.23.29a7,7,0,0,0-1.12,0,5.24,5.24,0,0,0-1.12,0,6.86,6.86,0,0,0-1.11,0,5.24,5.24,0,0,0-1.12,0,7,7,0,0,0-1.12,0,5.24,5.24,0,0,0-1.12,0,6.86,6.86,0,0,0-1.11,0,5.24,5.24,0,0,0-1.12,0,7,7,0,0,0-1.12,0c-.11,0-.1-.16-.1-.26s0-.48,0-.72c0-.4,0-.81,0-1.22s0-.81,0-1.22,0-.81,0-1.22,0-.82,0-1.22,0-.82,0-1.22,0-.82,0-1.23,0-.81,0-1.22,0-.81,0-1.22,0-.81,0-1.22,0-.81,0-1.22,0-.81,0-1.22,0-.82,0-1.22,0-.82,0-1.22,0-.82,0-1.23,0-.81,0-1.22,0-.81,0-1.22,0-.81,0-1.22,0-.81,0-1.22,0-.82,0-1.22,0-.82,0-1.22,0-.82,0-1.22,0-.82,0-1.23,0-.81,0-1.22,0-.81,0-1.22,0-.81,0-1.22,0-.81,0-1.22,0-.82,0-1.22,0-.82,0-1.22,0-.82,0-1.23a1.77,1.77,0,0,1,0-.32c0-.11-.07-.25.09-.3H40.4c.16,0,.25.06.23.26a1.54,1.54,0,0,0,0,.37v2.3l1-.64.65-.38a1.55,1.55,0,0,0,.46-.24l1-.48c.74-.28,1.48-.52,2.23-.74l1.13-.22,1.11-.15,1.11-.06,1.12.06,1.11.21,1.12.36.12,0,1,.5A10.71,10.71,0,0,1,56,25.43a.24.24,0,0,0,.12.14,13.75,13.75,0,0,1,1.53,2.35,22.44,22.44,0,0,1,.92,2.45l.3,1.21ZM31.29,51.12q0,.62,0,1.23c0,.4,0,.81,0,1.22s0,.81,0,1.22c0,1.1,0,2.21,0,3.31,0,.16,0,.21.18.17h7.82c.24.06.36,0,.33-.31s0-.49,0-.73V37.69l0-1.22.46-1.21.38-.68.39-.55.67-.73.5-.42.61-.39L43.75,32l1.11-.24h.23a5.52,5.52,0,0,1,3.12.46l.73.6.38.51.34.71L50,35.25,50,36.47V58.21c0,.08,0,.07.09.06h8.06c.12,0,.17,0,.17-.17s0-.58,0-.88V56a8.28,8.28,0,0,0,0-1.22V53.57a8.28,8.28,0,0,0,0-1.22V51.12a8.28,8.28,0,0,0,0-1.22V48.68a8.28,8.28,0,0,0,0-1.22V46.24a8.28,8.28,0,0,0,0-1.22V43.8a8.28,8.28,0,0,0,0-1.22V41.35a8.28,8.28,0,0,0,0-1.22V38.91a8.28,8.28,0,0,0,0-1.22V36.47a7.08,7.08,0,0,0,0-1.22A10.19,10.19,0,0,0,58.2,34,10,10,0,0,0,58,32.79a7.29,7.29,0,0,0-.23-1.22,11.47,11.47,0,0,0-.8-2.51,5.49,5.49,0,0,0-.56-1.14,2.67,2.67,0,0,0-.39-.65,2.58,2.58,0,0,0-.41-.57,3.93,3.93,0,0,0-.71-.81,1.79,1.79,0,0,0-.45-.42,3.19,3.19,0,0,0-.68-.53,4.42,4.42,0,0,0-1.12-.63.47.47,0,0,0-.27-.12,2.65,2.65,0,0,0-.84-.3,3.93,3.93,0,0,0-1.12-.24,3.77,3.77,0,0,0-1.11-.06,4.66,4.66,0,0,0-1.12.06,5.39,5.39,0,0,0-1.13.15,9.87,9.87,0,0,0-2.31.62,5.81,5.81,0,0,0-1,.42,11.57,11.57,0,0,0-2.3,1.29,3.84,3.84,0,0,0-.77.57.71.71,0,0,0-.28.21l-.8.61V24.26c0-.13,0-.26,0-.39,0-.29-.07-.39-.32-.3a6,6,0,0,0-1.12,0,7.11,7.11,0,0,0-1.13,0,6.86,6.86,0,0,0-1.11,0,7,7,0,0,0-1.12,0,6.86,6.86,0,0,0-1.11,0,7.11,7.11,0,0,0-1.13,0,6.86,6.86,0,0,0-1.11,0q-.2-.07-.18.15c0,.18,0,.37,0,.55,0,.4,0,.81,0,1.22s0,.81,0,1.22,0,.81,0,1.22,0,.81,0,1.22,0,.82,0,1.22,0,.82,0,1.22,0,.82,0,1.23,0,.81,0,1.22,0,.81,0,1.22,0,.81,0,1.22,0,.81,0,1.22,0,.81,0,1.22,0,.82,0,1.22,0,.82,0,1.22,0,.82,0,1.23,0,.81,0,1.22,0,.81,0,1.22,0,.81,0,1.22,0,.81,0,1.22,0,.82,0,1.22,0,.82,0,1.22S31.27,50.72,31.29,51.12Z"/><rect class="cls-2" x="1" y="1" width="70" height="70"/></g></g></svg>