<svg xmlns="http://www.w3.org/2000/svg" viewBox="0 0 69.01 64.19"><defs><style>.cls-1{fill:none;stroke:#fff;stroke-miterlimit:10;stroke-width:2px;}.cls-2,.cls-3{fill:#fff;}.cls-3{font-size:9px;font-family:Poppins-Medium, Poppins;}</style></defs><title>ResumeIcon</title><g id="Layer_2" data-name="Layer 2"><g id="Layer_1-2" data-name="Layer 1"><path class="cls-1" d="M1,42.41V5.49A4.48,4.48,0,0,1,5.48,1H30.11L48.56,19.47V46.16H1V42.41Z"/><path class="cls-1" d="M48.56,46.16V58.64c0,2-2,3.63-4.47,3.63H5.48C3,62.27,1,60.65,1,58.64V46.16Z"/><path class="cls-2" d="M34,42.22H15.45a1.1,1.1,0,0,1-.26-.06,1,1,0,0,1-.38-.26,1.16,1.16,0,0,1-.23-.4l0-.19V17.8a1.07,1.07,0,0,1,.06-.27,1,1,0,0,1,.26-.38.93.93,0,0,1,.4-.22l.18,0H34.2l.17.05a1.16,1.16,0,0,1,.32.2,1,1,0,0,1,.26.38,1.07,1.07,0,0,1,.06.27V41.31a1.07,1.07,0,0,1-.06.27,1,1,0,0,1-.26.38,1,1,0,0,1-.4.22l-.19,0ZM33,18.89H16.55V40.22H33ZM31.17,36.16v1.4H17.87v-1.4Zm-13.3-2.92h13.3v1.4H17.87Zm0-2.93h13.3v1.4H17.87Zm0-2.92h13.3v1.4H17.87Zm6.91-5.85h6.39v4.32H24.78Zm-6.91,2.93h5.3v1.39h-5.3Zm0-2.93h5.3v1.4h-5.3Z"/><path class="cls-1" d="M30.1,1h0L48.56,19.47H34.76a4.64,4.64,0,0,1-4.66-4.66V1Z"/><path class="cls-1" d="M45.84,50.84h6V37.49h8.95V50.84h6L56.31,62.68Z"/><text class="cls-3" transform="translate(6.88 57.54)">Resume</text></g></g></svg>