<svg xmlns="http://www.w3.org/2000/svg" viewBox="0 0 621 149.13"><defs><style>.cls-1{fill:#dfe4ea;}.cls-10,.cls-14,.cls-16,.cls-2,.cls-4,.cls-6,.cls-8{fill:none;}.cls-2{stroke:#dfe4ea;}.cls-10,.cls-11,.cls-12,.cls-14,.cls-16,.cls-17,.cls-18,.cls-2,.cls-4,.cls-6,.cls-8{stroke-linecap:round;stroke-linejoin:round;}.cls-3{fill:#fff;}.cls-4{stroke:#fff;}.cls-5{fill:#d54723;}.cls-6{stroke:#d54723;}.cls-7{fill:#fb6020;}.cls-8{stroke:#fb6020;}.cls-9{fill:#de3f18;}.cls-10{stroke:#de3f18;}.cls-11{fill:#dd4520;stroke:#dd4520;}.cls-12{fill:#d2f0fb;stroke:#d2f0fb;}.cls-13{fill:#fcbf0f;}.cls-14{stroke:#fcbf0f;}.cls-15{fill:#fee564;}.cls-16{stroke:#fee564;}.cls-17{fill:#0e3753;stroke:#0e3753;}.cls-18{fill:#196193;stroke:#196193;}</style></defs><title>Layer 10</title><g id="Layer_2" data-name="Layer 2"><g id="Layer_1-2" data-name="Layer 1"><g id="Layer_10" data-name="Layer 10"><g id="Layer_6" data-name="Layer 6"><path class="cls-1" d="M148.91,98.76c-.15-14.53-.36-33.9-.51-48.43l18.39-5.12s58.36,40.95,88.52,51.42c22.1,7.66,54.75,10.86,78.71,13,42.05,3.82,98.75,1.81,141.06,1.33,3.25,0,7.57-.2,10.81-.29,0,0-.64,6.14-.91,8.77-13.09,1.53-30.47,4-43.62,5.11-16.72,1.43-39.13,2.81-56,2.93-23.37.17-54.56-1.32-77.82-3.18-31.68-2.55-73.86-7.19-104.89-12.85-16.41-3-37.64-8.91-53.78-12.73h0"/><path class="cls-2" d="M148.4,50.33h0c.15,14.53.36,33.9.51,48.43h0c16.14,3.82,37.37,9.74,53.78,12.73,31,5.66,73.21,10.3,104.89,12.85,23.26,1.86,54.45,3.35,77.82,3.18,16.83-.12,39.24-1.5,56-2.93,13.15-1.12,30.53-3.58,43.62-5.11h0c.27-2.63.91-8.77.91-8.77h0c-3.24.09-7.56.25-10.81.29-42.31.48-99,2.49-141.06-1.33-24-2.18-56.61-5.38-78.71-13-30.16-10.47-88.51-51.42-88.52-51.42h0L148.4,50.33"/></g><g id="Layer_7" data-name="Layer 7"><path class="cls-3" d="M227.26,102.26c-18.71-3.27-43.4-8.51-62-12.15,0,0-.48-30.93-.69-44.18,0,0,27.2-6,39-8,27-4.64,63.46-9.59,90.93-12.15,18.49-1.71,43.31-2.92,61.91-3.44,19.94-.56,46.61-1.17,66.51,0,16.54,1,38.75,2.77,54.73,6.32,2,.45,4.57,1.4,6.53,2,0,0,4.25,25.23,4.57,36.11.34,11.15.38,26.19-2.46,37.11-.71,2.73-2.59,6.16-3.7,8.79-11,1.25-25.68,3.49-36.81,4.17-18.79,1.16-44,.75-62.83.29-27.91-.68-65.17-2.26-92.84-5.2-19-2-44.09-6.38-62.85-9.65"/><path class="cls-4" d="M165.25,90.11h0c18.61,3.64,43.3,8.88,62,12.15s43.81,7.63,62.85,9.65c27.67,2.94,64.93,4.52,92.84,5.2,18.84.46,44,.87,62.83-.29,11.13-.68,25.77-2.92,36.81-4.17h0c1.11-2.63,3-6.06,3.7-8.79,2.84-10.92,2.8-26,2.46-37.11-.32-10.88-4.57-36.1-4.57-36.11h0c-2-.59-4.51-1.54-6.53-2-16-3.55-38.19-5.35-54.73-6.32-19.9-1.17-46.57-.56-66.51,0-18.6.52-43.42,1.73-61.91,3.44-27.47,2.56-63.89,7.51-90.93,12.15-11.81,2-39,8-39,8h0c.21,13.25.69,44.18.69,44.18"/></g><g id="Layer_8" data-name="Layer 8"><path class="cls-5" d="M493.36,117.77c-4.51,1-10.61,2-15.16,2.87l2.77-12.9s18.43-4.11,26.37-5.74c8.51-1.75,20.05-3.49,28.46-5.52,9.15-2.22,20.94-6.16,29.92-8.78,8.77-2.56,20.42-6.08,29.26-8.49,5-1.35,11.6-3.12,16.64-4.27,1.77-.4,4.15-.85,5.93-1.21l2.85.53c-4.69,2.4-10.82,5.77-15.65,8-8.53,3.94-20.26,8.71-29.22,12-12.56,4.6-29.72,10-42.75,13.73C521.11,111.29,505.32,115.18,493.36,117.77Z"/><path class="cls-6" d="M478.2,120.64h0c4.55-.86,10.65-1.9,15.16-2.87,12-2.59,27.75-6.48,39.42-9.79,13-3.7,30.19-9.13,42.75-13.73,9-3.28,20.69-8,29.22-12,4.83-2.23,11-5.6,15.65-8l-2.85-.53h0c-1.78.36-4.16.81-5.93,1.21-5,1.15-11.68,2.92-16.64,4.27-8.84,2.41-20.49,5.93-29.26,8.49-9,2.62-20.77,6.56-29.92,8.78-8.41,2-19.95,3.77-28.46,5.52-7.94,1.63-26.37,5.74-26.37,5.74h0l-2.77,12.9"/></g><g id="Layer_9" data-name="Layer 9"><path class="cls-7" d="M495.41,110.37c-4.63.82-10.91,1.49-15.59,2.12,0,0,2.78-15.8,3.29-22.62.78-10.22.51-23.91,0-34.14a127,127,0,0,0-1.51-16.4c-.62-3.17-2.12-7.28-3-10.4,0,0,10.3.87,14.64,1.6,12.7,2.13,29.22,6.42,41.39,10,14.73,4.32,33.74,11.38,47.91,16.77,8,3,18.5,7.18,26.15,10.68,3.64,1.66,11.84,6,11.84,6-5.7,2.65-13.57,5.81-19.59,8-7.9,2.83-18.8,5.93-26.93,8.32-13.51,4-31.6,9.14-45.34,12.6C518.76,105.31,505.53,108.57,495.41,110.37Z"/><path class="cls-8" d="M479.82,112.49h0c4.68-.63,11-1.3,15.59-2.12,10.12-1.8,23.35-5.06,33.23-7.54,13.74-3.46,31.83-8.63,45.34-12.6,8.13-2.39,19-5.49,26.93-8.32,6-2.16,13.89-5.32,19.59-8,0,0-8.2-4.3-11.84-6-7.65-3.5-18.2-7.65-26.15-10.68-14.17-5.39-33.18-12.45-47.91-16.77-12.17-3.58-28.69-7.87-41.39-10-4.34-.73-14.64-1.6-14.64-1.6h0c.91,3.12,2.41,7.23,3,10.4a127,127,0,0,1,1.51,16.4c.51,10.23.78,23.92,0,34.14-.51,6.82-3.29,22.62-3.29,22.62"/><path class="cls-9" d="M150.91,145.67c-10.83-1.56-24.82-5.26-35.47-7.52,0,0,10.5-1.06,14.9-1.93,8.35-1.65,19.57-4.17,27.07-7.51a65.51,65.51,0,0,0,14.35-9,52.38,52.38,0,0,0,10.56-12.45c2-3.52,2.85-8.71,4.07-12.45L275.72,99c-1.2,5.76-1.5,13.7-4,19.19a41.86,41.86,0,0,1-9.66,13.3c-5.18,4.39-14.24,8.49-21.16,10.94-7.3,2.59-17.84,4.56-25.76,5.47-8.22.94-19.37.76-27.67.54a356.31,356.31,0,0,1-36.56-2.79"/><path class="cls-10" d="M115.44,138.15h0c10.65,2.26,24.64,6,35.47,7.52a356.31,356.31,0,0,0,36.56,2.79c8.3.22,19.45.4,27.67-.54,7.92-.91,18.46-2.88,25.76-5.47,6.92-2.45,16-6.55,21.16-10.94a41.86,41.86,0,0,0,9.66-13.3c2.5-5.49,2.8-13.43,4-19.19h0L186.39,94.8h0c-1.22,3.74-2.08,8.93-4.07,12.45a52.38,52.38,0,0,1-10.56,12.45,65.51,65.51,0,0,1-14.35,9c-7.5,3.34-18.72,5.86-27.07,7.51-4.4.87-14.89,1.93-14.9,1.93"/><path class="cls-7" d="M151.54,3.43c-10.83,1.53-24.83,5.2-35.47,7.42,0,0,10.5,1.05,14.89,1.91,8.35,1.62,19.56,4.11,27.08,7.42a65.1,65.1,0,0,1,14.35,8.9A51.94,51.94,0,0,1,183,41.37c2,3.47,2.84,8.6,4.06,12.29l89.33-4.16c-1.2-5.69-1.5-13.54-4-18.95a41.29,41.29,0,0,0-9.66-13.14C257.5,13.06,248.43,9,241.52,6.61c-7.31-2.56-17.84-4.51-25.75-5.4C207.55.28,196.39.46,188.09.68a359.13,359.13,0,0,0-36.55,2.75"/><path class="cls-8" d="M116.07,10.85h0C126.71,8.63,140.71,5,151.54,3.43A359.13,359.13,0,0,1,188.09.68c8.3-.22,19.46-.4,27.68.53,7.91.89,18.44,2.84,25.75,5.4,6.91,2.42,16,6.45,21.16,10.8a41.29,41.29,0,0,1,9.66,13.14c2.5,5.41,2.8,13.26,4,19h0L187,53.66h0c-1.22-3.69-2.08-8.82-4.06-12.29a51.94,51.94,0,0,0-10.56-12.29A65.1,65.1,0,0,0,158,20.18c-7.52-3.31-18.73-5.8-27.08-7.42-4.39-.86-14.89-1.91-14.89-1.91"/><path class="cls-11" d="M450.52,74.94c0-11.34-10.83-23.21-29-23.21s-29,11.87-29,23.21,10.83,23.22,29,23.22S450.52,86.29,450.52,74.94Z"/><path class="cls-12" d="M444,74.42c0-7.57-6.64-17.25-22-17.25s-22,9.68-22,17.25,6.64,17.26,22,17.26S444,82,444,74.42Z"/></g><g id="Layer_5" data-name="Layer 5"><path class="cls-13" d="M11.8,80.5C8.27,79,3.89,76.5.5,74.79c0,0,11.3-6.16,16.52-8.27A201.85,201.85,0,0,1,41.12,59,201.14,201.14,0,0,1,66,54.26c4.37-.46,10.29-.41,14.7-.45,8-.07,18.62-.22,26.55.41a159.3,159.3,0,0,1,18.84,2.62c4.63,1,10.49,3.08,15,4.4,0,0,.08,16.68.11,23.83-4,1.55-9.11,4-13.27,5.18a140.83,140.83,0,0,1-21.19,4.18c-7.43.83-17.48.73-25,.72-4.53,0-10.58,0-15.09-.42a187.47,187.47,0,0,1-25.8-4A209.82,209.82,0,0,1,11.8,80.5"/><path class="cls-14" d="M.5,74.79h0C3.89,76.5,8.27,79,11.8,80.5A209.82,209.82,0,0,0,40.89,90.72a187.47,187.47,0,0,0,25.8,4c4.51.39,10.56.42,15.09.42,7.5,0,17.55.11,25-.72A140.83,140.83,0,0,0,128,90.25c4.16-1.22,9.29-3.63,13.27-5.18h0c0-7.15-.11-23.82-.11-23.83h0c-4.49-1.32-10.35-3.4-15-4.4a159.3,159.3,0,0,0-18.84-2.62c-7.93-.63-18.58-.48-26.55-.41-4.41,0-10.33,0-14.7.45A201.14,201.14,0,0,0,41.12,59,201.85,201.85,0,0,0,17,66.52C11.8,68.63.5,74.79.5,74.79"/><path class="cls-15" d="M100.79,84C92.26,82.64,82,77.83,74,75.19c0,0,17.13-8.83,25.46-10.59,9.22-1.95,22.67-3.06,31.78-.83,2.65.64,5.46,2.73,7.8,3.9,0,0,.22,9,.31,12.85-2.37,1-5.29,2.88-7.88,3.47-8.85,2-21.67,1.43-30.69,0"/><path class="cls-16" d="M74,75.19h0c8,2.64,18.25,7.45,26.78,8.8,9,1.43,21.84,2,30.69,0,2.59-.59,5.51-2.43,7.88-3.47h0c-.09-3.85-.31-12.85-.31-12.85h0c-2.34-1.17-5.15-3.26-7.8-3.9-9.11-2.23-22.56-1.12-31.78.83C91.14,66.36,74,75.19,74,75.19"/><path class="cls-17" d="M143.33,92.61V55.24h-7.57V92.61Z"/><path class="cls-18" d="M152,95.5V52.43h-9.28V95.5Z"/></g></g></g></g></svg>