<svg xmlns="http://www.w3.org/2000/svg" viewBox="0 0 359.18 190.68"><defs><style>.cls-1{fill:#140d70;}.cls-2{fill:#141233;}.cls-3{fill:#262262;}.cls-4{fill:#1b238a;}.cls-5{fill:#2936d4;}.cls-6{fill:#fff200;}.cls-7{fill:#e0e1e2;}.cls-8{fill:#e1e3e6;}.cls-9{fill:#007f3f;}.cls-10{fill:#fff;}.cls-11{fill:#00007f;}.cls-12{fill:#afa;}</style></defs><title>Asset 23</title><g id="Layer_2" data-name="Layer 2"><g id="Layer_1-2" data-name="Layer 1"><circle cx="20.31" cy="187.15" r="0.07"/><path class="cls-1" d="M359.18,128.1c0,8-4.29,15.61-12.1,22.62-26,23.37-91.2,40-167.49,40s-141.49-16.57-167.5-40C4.28,143.71,0,136.08,0,128.1Z"/><path class="cls-2" d="M359.18,128.1c0,8-4.29,15.61-12.1,22.62-36.08,16.81-97.63,27.87-167.49,27.87S48.16,167.52,12.09,150.72C4.28,143.71,0,136.08,0,128.1Z"/><path class="cls-3" d="M359.18,128.1c0,22.17-80.41,40.15-179.59,40.15S0,150.29,0,128.1C0,99.43,80.41,76.18,179.59,76.18S359.18,99.43,359.18,128.1Z"/><ellipse class="cls-4" cx="179.59" cy="110.77" rx="148.7" ry="34.59"/><path class="cls-5" d="M144.65,85.12S15.09,102.77,61,118s110.32,16.26,110.32,16.26S-.17,112.2,144.65,85.12Z"/><path class="cls-5" d="M208.56,85.12S338.13,102.77,292.27,118,182,134.22,182,134.22,353.39,112.2,208.56,85.12Z"/><path class="cls-6" d="M336,132.31a3.87,3.87,0,0,1,.41,3.22,4.39,4.39,0,0,1-2.23,2.61,4.15,4.15,0,0,1-5.76-2,4.33,4.33,0,0,1,2-5.57,4.08,4.08,0,0,1,3.06-.24A4.54,4.54,0,0,1,336,132.31Z"/><path class="cls-6" d="M324.51,139a4.26,4.26,0,1,1-8.06,2.74,4.26,4.26,0,0,1,8.06-2.74Z"/><path class="cls-6" d="M311.85,143.13a4.26,4.26,0,1,1-8.25,2.12,4.26,4.26,0,0,1,8.25-2.12Z"/><path class="cls-6" d="M298.92,146.31a4.26,4.26,0,1,1-5-3.26A4.23,4.23,0,0,1,298.92,146.31Z"/><path class="cls-6" d="M285.86,148.86a4.26,4.26,0,1,1-4.88-3.45A4.24,4.24,0,0,1,285.86,148.86Z"/><path class="cls-6" d="M272.72,151a4.25,4.25,0,1,1-4.76-3.6A4.24,4.24,0,0,1,272.72,151Z"/><path class="cls-6" d="M259.51,152.65a4.26,4.26,0,1,1-4.7-3.75A4.25,4.25,0,0,1,259.51,152.65Z"/><path class="cls-6" d="M246.26,154a4.26,4.26,0,1,1-4.6-3.84A4.23,4.23,0,0,1,246.26,154Z"/><path class="cls-6" d="M233,155.07a4.26,4.26,0,1,1-4.52-3.95A4.23,4.23,0,0,1,233,155.07Z"/><path class="cls-6" d="M219.71,155.86a4.26,4.26,0,1,1-4.44-4.05A4.24,4.24,0,0,1,219.71,155.86Z"/><path class="cls-6" d="M206.41,156.38a4.26,4.26,0,1,1-4.35-4.11A4.24,4.24,0,0,1,206.41,156.38Z"/><path class="cls-6" d="M193.09,156.68a4.26,4.26,0,1,1-4.29-4.19A4.23,4.23,0,0,1,193.09,156.68Z"/><path class="cls-6" d="M179.78,156.73a4.27,4.27,0,1,1-4.22-4.26A4.25,4.25,0,0,1,179.78,156.73Z"/><path class="cls-6" d="M166.47,156.55a4.26,4.26,0,0,1-8.52-.25,4.26,4.26,0,0,1,8.52.25Z"/><path class="cls-6" d="M153.16,156.14a4.26,4.26,0,1,1-4.06-4.4A4.24,4.24,0,0,1,153.16,156.14Z"/><path class="cls-6" d="M139.87,155.48a4.26,4.26,0,1,1-4-4.49A4.23,4.23,0,0,1,139.87,155.48Z"/><path class="cls-6" d="M126.59,154.55a4.26,4.26,0,1,1-3.88-4.58A4.28,4.28,0,0,1,126.59,154.55Z"/><path class="cls-6" d="M113.33,153.34a4.27,4.27,0,1,1-3.79-4.65A4.23,4.23,0,0,1,113.33,153.34Z"/><path class="cls-6" d="M100.1,151.81a4.25,4.25,0,1,1-3.64-4.75A4.22,4.22,0,0,1,100.1,151.81Z"/><path class="cls-6" d="M86.93,149.93a4.26,4.26,0,1,1-3.48-4.85A4.23,4.23,0,0,1,86.93,149.93Z"/><path class="cls-6" d="M73.82,147.62a4.27,4.27,0,1,1-8.35-1.77,4.27,4.27,0,0,1,8.35,1.77Z"/><path class="cls-6" d="M60.82,144.76a4.25,4.25,0,1,1-8.22-2.19,4.25,4.25,0,0,1,8.22,2.19Z"/><path class="cls-6" d="M48,141.16a4.26,4.26,0,1,1-8-2.86,4.34,4.34,0,0,1,5.42-2.49A4.29,4.29,0,0,1,48,141.16Z"/><path class="cls-6" d="M35.57,136.4a4,4,0,0,1-2.43,2.15,4.16,4.16,0,0,1-1.69.18,5,5,0,0,1-1.73-.54,4.49,4.49,0,0,1-2.17-2.72,3.88,3.88,0,0,1,.56-3.21,4.62,4.62,0,0,1,2.65-1.84,4.26,4.26,0,0,1,1.54-.11,3.74,3.74,0,0,1,1.5.46A4.36,4.36,0,0,1,35.57,136.4Z"/><path class="cls-6" d="M25.64,128.09a3.71,3.71,0,0,1-3.73,2.1,4.22,4.22,0,0,1-1.56-.49,4.48,4.48,0,0,1-1.25-1.06,4.11,4.11,0,0,1-.69-1.39,3.53,3.53,0,0,1,.5-2.9,4.16,4.16,0,0,1,2.39-1.67,3.92,3.92,0,0,1,1.4-.12,3.37,3.37,0,0,1,1.35.42A4,4,0,0,1,25.64,128.09Z"/><path class="cls-6" d="M25.1,116.82a3.1,3.1,0,0,1-1.85,1.65,3.44,3.44,0,0,1-1.28.15,3.87,3.87,0,0,1-1.33-.41,3.7,3.7,0,0,1-1.06-.89,3.28,3.28,0,0,1-.59-1.18,3,3,0,0,1,.43-2.46,3.55,3.55,0,0,1,2-1.41,3.13,3.13,0,0,1,2.32.27A3.32,3.32,0,0,1,25.1,116.82Z"/><path class="cls-6" d="M30.88,109.06a2.3,2.3,0,0,1-1.37,1.21,2.45,2.45,0,0,1-1.92-.2,2.77,2.77,0,0,1-.77-.66,2.53,2.53,0,0,1-.43-.87,2.17,2.17,0,0,1,.31-1.8,2.63,2.63,0,0,1,2.35-1.11,2.23,2.23,0,0,1,.83.26A2.49,2.49,0,0,1,30.88,109.06Z"/><path class="cls-6" d="M337.32,127a3.61,3.61,0,0,0,2.21,1.94,3.66,3.66,0,0,0,1.52.16,4.22,4.22,0,0,0,1.56-.49,4.48,4.48,0,0,0,1.25-1.06,4.07,4.07,0,0,0,.69-1.38,3.55,3.55,0,0,0-.5-2.91,4.16,4.16,0,0,0-2.39-1.67,3.92,3.92,0,0,0-1.4-.12,3.54,3.54,0,0,0-1.35.42A4,4,0,0,0,337.32,127Z"/><path class="cls-6" d="M335.15,116.27a3.1,3.1,0,0,0,1.86,1.66,3.39,3.39,0,0,0,1.28.14,3.79,3.79,0,0,0,1.32-.4,4.27,4.27,0,0,0,1.07-.89,3.68,3.68,0,0,0,.59-1.19,3,3,0,0,0-.43-2.46,3.61,3.61,0,0,0-2-1.41,3,3,0,0,0-1.18-.08,2.82,2.82,0,0,0-1.14.36A3.29,3.29,0,0,0,335.15,116.27Z"/><path class="cls-6" d="M328.83,110.69a2.3,2.3,0,0,0,1.37,1.21,2.72,2.72,0,0,0,.95.1,2.26,2.26,0,0,0,1-.31,2.41,2.41,0,0,0,.78-.66,2.48,2.48,0,0,0,.43-.86,2.17,2.17,0,0,0-.31-1.8,2.6,2.6,0,0,0-1.49-1,2.49,2.49,0,0,0-.86-.07,2.18,2.18,0,0,0-.83.26A2.48,2.48,0,0,0,328.83,110.69Z"/><ellipse class="cls-3" cx="179.59" cy="113.46" rx="61.7" ry="13.23"/><path class="cls-7" d="M235.48,115.61c-13.83,4.09-32.52,6.61-53.07,6.61a218.89,218.89,0,0,1-39.77-3.44l-2.78-.55a117.8,117.8,0,0,1-16.09-4.43,55.92,55.92,0,0,1,111.71,1.81Z"/><path class="cls-8" d="M179.59,61.36s-35.93,7.74-39.7,56.71a.34.34,0,0,1,0,.14,115.38,115.38,0,0,1-16.09-4.43,55.9,55.9,0,0,1,55.81-52.42Z"/><ellipse class="cls-8" cx="187.56" cy="71.81" rx="7.97" ry="5.14"/><ellipse class="cls-8" cx="173.99" cy="79.57" rx="2.89" ry="1.87"/><ellipse class="cls-9" cx="179.48" cy="93.2" rx="40.57" ry="27.8" transform="translate(-0.78 1.52) rotate(-0.49)"/><circle class="cls-10" cx="164.71" cy="88.45" r="12.87"/><circle class="cls-10" cx="189" cy="88.45" r="12.87"/><circle class="cls-11" cx="164.97" cy="92.41" r="7.19"/><circle class="cls-11" cx="190.32" cy="91.35" r="7.19"/><ellipse class="cls-10" cx="165.77" cy="89.24" rx="1.58" ry="1.85"/><ellipse class="cls-10" cx="189.53" cy="87.65" rx="1.58" ry="1.85"/><path class="cls-9" d="M139.89,24.61,161.66,69.7l6.22-3.11-28-42Z"/><path class="cls-9" d="M226.23,8.08,197.48,73.15l-8.21-4.49,37-60.58Z"/><circle class="cls-12" cx="136.73" cy="20.07" r="6.86"/><circle class="cls-12" cx="228.08" cy="6.86" r="6.86"/><path d="M115.85,14.74h0Z"/></g></g></svg>