<svg xmlns="http://www.w3.org/2000/svg" xmlns:xlink="http://www.w3.org/1999/xlink" viewBox="0 0 95.72 121.49"><defs><style>.cls-1{fill:#cf0bff;}.cls-2{fill:none;}.cls-2,.cls-3{stroke:#cf0bff;stroke-miterlimit:10;stroke-width:10px;}.cls-3{fill:url(#linear-gradient);}.cls-4{fill:#ff08ff;}.cls-5{fill:#c330e2;}.cls-6{fill:#fff;}.cls-7{fill:#2e3436;}.cls-8{fill:url(#linear-gradient-2);}</style><linearGradient id="linear-gradient" x1="21.79" y1="46.32" x2="34.88" y2="46.32" gradientUnits="userSpaceOnUse"><stop offset="0" stop-color="#fff"/><stop offset="1"/></linearGradient><linearGradient id="linear-gradient-2" x1="526.59" y1="-1674.43" x2="526.59" y2="-1657.09" gradientTransform="matrix(1, 0, 0, -1, -478.85, -1599.48)" gradientUnits="userSpaceOnUse"><stop offset="0" stop-color="#2e3436"/><stop offset="1" stop-color="#d8571d"/></linearGradient></defs><title>Asset 38</title><g id="Layer_2" data-name="Layer 2"><g id="Layer_1-2" data-name="Layer 1"><path class="cls-1" d="M71.88,83.82c-1,1,0,35,0,35s5,6,8,0v-35Z"/><path class="cls-1" d="M16.88,80.82c-1,1,0,35,0,35s5,6,8,0v-35Z"/><path class="cls-1" d="M34.88,77.82c-1,1,0,35,0,35s5,6,8,0v-35Z"/><path class="cls-1" d="M51.88,77.82c-1,1,0,35,0,35s5,6,8,0v-35Z"/><path class="cls-2" d="M73.88,29.82s2,23-13,33"/><path class="cls-3" d="M21.88,29.82s-2,23,13,33"/><path class="cls-4" d="M79.87,61.82c0,1.41-.19,22.26-.56,23.59-2.8,10.18-15.81-1.59-31.44-1.59-15.39,0-28.24,12-31.3,2.06-.46-1.48-.69-22.49-.69-24.06,0-12.15,14.33-22,32-22s32,9.85,32,22Z"/><path class="cls-5" d="M34.72,16.82A17.09,17.09,0,0,1,17.36,33.63,17.09,17.09,0,0,1,0,16.82,17.09,17.09,0,0,1,17.36,0,17.09,17.09,0,0,1,34.72,16.82Z"/><path class="cls-6" d="M28.64,15.76A11.75,11.75,0,0,1,16.71,27.33,11.75,11.75,0,0,1,4.77,15.76,11.75,11.75,0,0,1,16.71,4.2,11.75,11.75,0,0,1,28.64,15.76Z"/><path class="cls-7" d="M22.36,15.77a5.56,5.56,0,0,1-5.65,5.47,5.56,5.56,0,0,1-5.65-5.47,5.56,5.56,0,0,1,5.65-5.47A5.56,5.56,0,0,1,22.36,15.77Z"/><path class="cls-5" d="M95.72,16.82a17.37,17.37,0,0,1-34.72,0,17.37,17.37,0,0,1,34.72,0Z"/><path class="cls-6" d="M89.64,15.76a11.94,11.94,0,0,1-23.87,0,11.94,11.94,0,0,1,23.87,0Z"/><path class="cls-7" d="M83.36,15.77a5.65,5.65,0,0,1-11.3,0,5.65,5.65,0,0,1,11.3,0Z"/><path class="cls-8" d="M71.2,61.48v3c0,1-4.38,1.79-9.81,1.79H34.1c-5.44,0-9.81-.8-9.81-1.79v-3C33.41,61.16,63.65,52.92,71.2,61.48Z"/><path class="cls-6" d="M35.77,59.92c-2.34.38-4.51.72-6.42,1,0,.07,0,.14,0,.2v6a2,2,0,0,0,1.84,2.18h3.07a2,2,0,0,0,1.84-2.18v-6A2.44,2.44,0,0,0,35.77,59.92Z"/><path class="cls-6" d="M57.15,57.6l-1.78,0c0,.08,0,.16,0,.24v6.05a2,2,0,0,0,1.85,2.17h3.06a2,2,0,0,0,1.84-2.17V57.87s0,0,0,0a44.16,44.16,0,0,0-5-.24Z"/></g></g></svg>