<svg xmlns="http://www.w3.org/2000/svg" xmlns:xlink="http://www.w3.org/1999/xlink" viewBox="0 0 64 76.46"><defs><style>.cls-1{fill:#c60c1a;}.cls-2{fill:#931445;}.cls-3{fill:#fff;}.cls-4{fill:#2e3436;}.cls-5{fill:url(#linear-gradient);}.cls-6{fill:#f9102c;}.cls-7{fill:#ad1245;}</style><linearGradient id="linear-gradient" x1="510.72" y1="595.74" x2="510.72" y2="613.09" gradientTransform="matrix(1, 0, 0, -1, -478.85, 656.87)" gradientUnits="userSpaceOnUse"><stop offset="0" stop-color="#2e3436"/><stop offset="1" stop-color="#d8571d"/></linearGradient></defs><title>Asset 29</title><g id="Layer_2" data-name="Layer 2"><g id="Layer_1-2" data-name="Layer 1"><path class="cls-1" d="M64,33.64c0,2.15-.19,34-.56,36.07C60.64,85.28,47.63,67.28,32,67.28,16.61,67.28,3.76,85.64.69,70.42.24,68.16,0,36,0,33.64,0,15.06,14.33,0,32,0S64,15.06,64,33.64Z"/><path class="cls-2" d="M50.84,22A17.09,17.09,0,0,1,33.48,38.81c-9.58,0-17.36-7.53-17.36-16.82S23.9,5.18,33.48,5.18,50.84,12.71,50.84,22Z"/><path class="cls-3" d="M44.77,20.94A11.76,11.76,0,0,1,32.83,32.51,11.76,11.76,0,0,1,20.89,20.94,11.75,11.75,0,0,1,32.83,9.38,11.75,11.75,0,0,1,44.77,20.94Z"/><path class="cls-4" d="M38.48,20.94a5.65,5.65,0,1,1-5.65-5.47A5.56,5.56,0,0,1,38.48,20.94Z"/><path class="cls-3" d="M37,19.26a1.75,1.75,0,1,1-1.74-1.69A1.71,1.71,0,0,1,37,19.26Z"/><path class="cls-5" d="M55.32,47.66v3c0,1-4.37,1.78-9.81,1.78H18.22c-5.43,0-9.81-.8-9.81-1.78v-3C17.54,47.33,47.78,39.1,55.32,47.66Z"/><path class="cls-3" d="M19.9,46.1c-2.34.38-4.51.72-6.42,1a1.48,1.48,0,0,0,0,.21v6a2,2,0,0,0,1.84,2.18h3.07a2,2,0,0,0,1.84-2.18v-6A2.53,2.53,0,0,0,19.9,46.1Z"/><path class="cls-4" d="M30.87,48.64c-4.53,0-8.28,1.64-8.88,3.77H39.75C39.15,50.28,35.4,48.64,30.87,48.64Z"/><path class="cls-3" d="M41.28,43.78l-1.79,0c0,.08,0,.16,0,.24V50.1a2,2,0,0,0,1.85,2.17h3.06a2,2,0,0,0,1.84-2.17V44a43.44,43.44,0,0,0-4.95-.24Z"/><path class="cls-6" d="M11.06,9.61A1.85,1.85,0,1,1,9.22,7.83,1.82,1.82,0,0,1,11.06,9.61Z"/><path class="cls-6" d="M8.24,14.34A1.85,1.85,0,1,1,6.4,12.55,1.81,1.81,0,0,1,8.24,14.34Z"/><path class="cls-7" d="M11.42,11.54a1.85,1.85,0,0,1,.07.48,1.81,1.81,0,0,1-1.84,1.79,1.85,1.85,0,0,1-1.22-.45A1.85,1.85,0,0,0,12,12.87,1.79,1.79,0,0,0,11.42,11.54Z"/><path class="cls-7" d="M8.24,16.27a.88.88,0,0,1,.06.33A1.26,1.26,0,0,1,7,17.85a1.3,1.3,0,0,1-.86-.32,1.29,1.29,0,0,0,2.52-.34,1.18,1.18,0,0,0-.44-.92Z"/><path class="cls-6" d="M51.61,7.61a1.84,1.84,0,1,0,1.84-1.78A1.81,1.81,0,0,0,51.61,7.61Z"/><path class="cls-6" d="M54.43,12.34a1.84,1.84,0,1,0,1.84-1.78A1.81,1.81,0,0,0,54.43,12.34Z"/><path class="cls-7" d="M51.22,10.28a1.51,1.51,0,0,0-.09.48,1.94,1.94,0,0,0,2.06,1.79,2.28,2.28,0,0,0,1.38-.45,2,2,0,0,1-2,1.29,2,2,0,0,1-2.07-1.78,1.68,1.68,0,0,1,.7-1.33Z"/><path class="cls-7" d="M55.18,13.54a1.14,1.14,0,0,0,0,.33,1.28,1.28,0,0,0,2.13.93,1.28,1.28,0,0,1-2.51-.34,1.21,1.21,0,0,1,.43-.92Z"/><path class="cls-6" d="M57.24,16.54a1.85,1.85,0,1,0,1.85-1.78A1.82,1.82,0,0,0,57.24,16.54Z"/><path class="cls-7" d="M56.78,18.58a1.51,1.51,0,0,0-.08.48,1.82,1.82,0,0,0,1.84,1.79,1.9,1.9,0,0,0,1.23-.45,1.85,1.85,0,0,1-3.61-.5A1.72,1.72,0,0,1,56.78,18.58Z"/></g></g></svg>